<svg width="428" height="317" viewBox="0 0 428 317" fill="none" xmlns="http://www.w3.org/2000/svg">
<mask id="mask0_133_1764" style="mask-type:luminance" maskUnits="userSpaceOnUse" x="62" y="0" width="303" height="207">
<path d="M62.7969 0H364.13V206.505H62.7969V0Z" fill="white"/>
</mask>
<g mask="url(#mask0_133_1764)">
<path fill-rule="evenodd" clip-rule="evenodd" d="M213.37 193.792L228.5 177.146L223.963 187.734L233.042 177.146L226.989 168.063V154.448L217.911 146.88L222.448 145.365L213.37 139.313L211.854 115.099L210.344 130.234L205.802 109.047L198.239 121.156L193.698 122.667L181.594 140.828L172.51 142.339L186.13 151.417H180.078L189.156 155.958L187.646 163.526L201.265 172.604L195.213 171.094L199.75 174.12L198.239 192.276L201.265 186.224V195.302L207.318 190.766L213.37 193.792ZM361.667 177.146C363.182 168.063 363.182 158.984 363.182 149.906C363.182 66.6771 296.599 0.09375 213.37 0.09375C131.656 0.09375 63.5571 66.6771 63.5571 149.906C63.5571 158.984 65.0728 168.063 66.5832 177.146C68.0988 186.224 71.1248 195.302 74.1509 204.38C75.6665 204.38 75.6665 204.38 78.6925 204.38C80.203 204.38 81.7186 201.354 83.229 199.844C83.229 198.328 84.7446 195.302 86.255 195.302C87.7707 195.302 89.2811 190.766 90.7967 189.25C90.7967 187.734 92.3123 186.224 92.3123 184.708C93.8228 184.708 93.8228 184.708 93.8228 184.708C95.3384 184.708 99.8748 180.172 101.39 178.656C101.39 177.146 104.417 174.12 104.417 172.604C104.417 172.604 108.953 166.552 110.469 165.036C110.469 163.526 113.495 160.5 113.495 160.5C115.01 162.01 116.521 165.036 121.062 163.526C124.088 162.01 127.114 160.5 130.14 158.984C131.656 157.474 134.682 155.958 136.193 154.448L146.786 145.365L149.812 143.854C152.838 142.339 152.838 140.828 154.354 137.802C155.864 134.771 154.354 133.26 158.89 133.26C160.406 133.26 161.922 134.771 166.458 134.771C166.458 134.771 167.974 134.771 169.484 134.771C172.51 134.771 172.51 134.771 174.026 133.26C175.536 133.26 178.568 130.234 178.568 128.719L180.078 127.208C183.104 125.693 186.13 119.641 187.646 118.125C189.156 118.125 193.698 112.073 193.698 112.073C195.213 110.563 196.724 109.047 196.724 107.536C198.239 106.021 202.776 95.4271 205.802 95.4271C207.318 95.4271 208.828 93.9167 211.854 96.9427C211.854 98.4531 213.37 98.4531 214.885 99.9688C214.885 101.479 220.937 107.536 220.937 107.536L222.448 109.047C223.963 109.047 225.474 112.073 228.5 113.589C230.015 113.589 233.042 118.125 234.557 118.125C236.068 119.641 237.583 121.156 239.094 122.667C240.609 124.182 243.635 130.234 245.146 130.234C246.661 131.745 251.203 136.286 251.203 137.802C252.713 139.313 258.765 143.854 260.281 145.365C261.792 146.88 263.307 149.906 264.823 151.417C267.849 152.932 266.333 154.448 269.359 154.448C269.359 152.932 270.875 151.417 270.875 151.417C272.385 149.906 279.953 143.854 282.979 142.339C282.979 142.339 286.005 140.828 289.031 140.828C292.057 139.313 292.057 137.802 296.599 139.313C296.599 140.828 299.625 140.828 299.625 140.828C301.14 142.339 304.167 146.88 305.677 146.88C305.677 148.391 310.219 154.448 310.219 154.448C311.729 154.448 310.219 155.958 311.729 155.958C313.245 155.958 314.755 157.474 316.271 160.5C319.297 162.01 326.864 166.552 329.89 168.063C332.917 169.578 334.432 171.094 337.458 174.12C338.969 174.12 340.484 175.63 341.995 177.146C345.021 178.656 346.536 183.198 346.536 183.198C349.562 186.224 351.078 187.734 352.588 190.766C354.104 192.276 354.104 195.302 355.614 198.328C358.64 190.766 360.156 184.708 361.667 177.146ZM276.927 165.036L278.437 174.12L273.901 177.146L272.385 190.766L278.437 186.224L281.469 199.844L289.031 196.818L293.573 201.354L314.755 196.818H302.651L329.89 189.25L316.271 184.708L310.219 171.094L311.729 178.656L304.167 169.578L298.114 168.063L296.599 143.854L290.547 152.932H279.953V172.604L276.927 165.036ZM240.609 151.417L242.12 165.036L267.849 169.578L261.792 163.526L251.203 149.906L236.068 130.234V134.771L230.015 128.719V131.745L237.583 145.365L239.094 158.984L240.609 151.417ZM124.088 187.734L115.01 177.146L107.443 184.708V181.682L96.8488 192.276L89.2811 204.38H98.3644L95.3384 205.896H99.8748L107.443 192.276L105.927 198.328L108.953 196.818V201.354L119.547 196.818L124.088 187.734ZM172.51 162.01L163.432 145.365L151.328 155.958L154.354 149.906L143.76 157.474L139.219 163.526L130.14 168.063L121.062 172.604L128.63 175.63L130.14 187.734L131.656 196.818L134.682 192.276L142.245 201.354L140.734 193.792L146.786 202.87L158.89 198.328L157.38 192.276L167.974 181.682L161.922 184.708L171 174.12L172.51 162.01Z" fill="white"/>
</g>
<mask id="mask1_133_1764" style="mask-type:luminance" maskUnits="userSpaceOnUse" x="0" y="215" width="428" height="7">
<path d="M0 215.839H428V221H0V215.839Z" fill="white"/>
</mask>
<g mask="url(#mask1_133_1764)">
<path fill-rule="evenodd" clip-rule="evenodd" d="M428.25 218L373.776 219.516L320.813 221.026H107.443L52.9635 219.516L0 218H52.9635L107.443 216.49H320.813L373.776 218H428.25Z" fill="white"/>
</g>
<path d="M36.9691 275.48C39.5628 276.037 41.6566 277.329 43.2399 279.355C44.8232 281.386 45.6149 283.698 45.6149 286.292C45.6149 290.058 44.3024 293.037 41.6774 295.23C39.0524 297.428 35.391 298.521 30.6982 298.521H9.76074V253.584H29.9899C34.5576 253.584 38.1357 254.636 40.7191 256.73C43.3024 258.829 44.5941 261.667 44.5941 265.251C44.5941 267.891 43.8962 270.084 42.5107 271.834C41.1201 273.584 39.2712 274.803 36.9691 275.48ZM20.7191 271.771H27.8857C29.6774 271.771 31.0524 271.376 32.0107 270.584C32.9691 269.792 33.4482 268.636 33.4482 267.105C33.4482 265.563 32.9691 264.391 32.0107 263.584C31.0524 262.766 29.6774 262.355 27.8857 262.355H20.7191V271.771ZM28.7816 289.688C30.6149 289.688 32.0316 289.271 33.0316 288.438C34.0316 287.605 34.5316 286.407 34.5316 284.834C34.5316 283.251 34.0107 282.016 32.9691 281.126C31.9274 280.224 30.4899 279.771 28.6566 279.771H20.7191V289.688H28.7816Z" fill="white"/>
<path d="M68.1973 299.042C64.6973 299.042 61.541 298.303 58.7389 296.813C55.9473 295.313 53.7493 293.178 52.1556 290.396C50.5566 287.62 49.7598 284.375 49.7598 280.667C49.7598 277 50.5618 273.771 52.1764 270.98C53.8014 268.178 56.0202 266.032 58.8431 264.542C61.6608 263.042 64.8223 262.292 68.3223 262.292C71.8223 262.292 74.9733 263.042 77.7806 264.542C80.5983 266.032 82.8223 268.178 84.4473 270.98C86.0723 273.771 86.8848 277 86.8848 280.667C86.8848 284.334 86.0566 287.573 84.4056 290.375C82.765 293.167 80.5306 295.313 77.6973 296.813C74.8639 298.303 71.6973 299.042 68.1973 299.042ZM68.1973 289.563C70.2806 289.563 72.0566 288.803 73.5306 287.271C74.9994 285.73 75.7389 283.532 75.7389 280.667C75.7389 277.808 75.0202 275.615 73.5931 274.084C72.1608 272.542 70.4056 271.771 68.3223 271.771C66.1816 271.771 64.4108 272.532 63.0098 274.042C61.6035 275.558 60.9056 277.766 60.9056 280.667C60.9056 283.532 61.5931 285.73 62.9681 287.271C64.3535 288.803 66.0983 289.563 68.1973 289.563Z" fill="white"/>
<path d="M108.955 299.042C105.455 299.042 102.299 298.303 99.4967 296.813C96.7051 295.313 94.5072 293.178 92.9134 290.396C91.3145 287.62 90.5176 284.375 90.5176 280.667C90.5176 277 91.3197 273.771 92.9342 270.98C94.5592 268.178 96.778 266.032 99.6009 264.542C102.419 263.042 105.58 262.292 109.08 262.292C112.58 262.292 115.731 263.042 118.538 264.542C121.356 266.032 123.58 268.178 125.205 270.98C126.83 273.771 127.643 277 127.643 280.667C127.643 284.334 126.814 287.573 125.163 290.375C123.523 293.167 121.288 295.313 118.455 296.813C115.622 298.303 112.455 299.042 108.955 299.042ZM108.955 289.563C111.038 289.563 112.814 288.803 114.288 287.271C115.757 285.73 116.497 283.532 116.497 280.667C116.497 277.808 115.778 275.615 114.351 274.084C112.919 272.542 111.163 271.771 109.08 271.771C106.939 271.771 105.169 272.532 103.768 274.042C102.361 275.558 101.663 277.766 101.663 280.667C101.663 283.532 102.351 285.73 103.726 287.271C105.111 288.803 106.856 289.563 108.955 289.563Z" fill="white"/>
<path d="M155.276 298.521L144.401 283.542V298.521H133.442V251.167H144.401V277.334L155.213 262.813H168.713L153.859 280.73L168.838 298.521H155.276Z" fill="white"/>
<path d="M178.506 259.105C176.573 259.105 174.995 258.542 173.776 257.417C172.568 256.282 171.964 254.875 171.964 253.209C171.964 251.5 172.568 250.084 173.776 248.959C174.995 247.823 176.573 247.25 178.506 247.25C180.381 247.25 181.922 247.823 183.131 248.959C184.349 250.084 184.964 251.5 184.964 253.209C184.964 254.875 184.349 256.282 183.131 257.417C181.922 258.542 180.381 259.105 178.506 259.105ZM183.943 262.813V298.521H172.985V262.813H183.943Z" fill="white"/>
<path d="M213.631 262.417C217.808 262.417 221.142 263.782 223.631 266.5C226.131 269.209 227.381 272.933 227.381 277.667V298.521H216.506V279.125C216.506 276.74 215.886 274.886 214.652 273.563C213.412 272.245 211.746 271.584 209.652 271.584C207.569 271.584 205.907 272.245 204.673 273.563C203.433 274.886 202.819 276.74 202.819 279.125V298.521H191.86V262.813H202.819V267.542C203.928 265.959 205.423 264.709 207.298 263.792C209.173 262.875 211.282 262.417 213.631 262.417Z" fill="white"/>
<path d="M248.568 262.292C251.079 262.292 253.282 262.808 255.173 263.834C257.074 264.865 258.537 266.209 259.568 267.875V262.813H270.506V298.459C270.506 301.735 269.85 304.709 268.548 307.375C267.256 310.042 265.277 312.167 262.61 313.75C259.943 315.334 256.62 316.125 252.652 316.125C247.36 316.125 243.068 314.875 239.777 312.375C236.495 309.875 234.631 306.49 234.173 302.23H244.985C245.318 303.589 246.12 304.667 247.402 305.459C248.693 306.25 250.277 306.646 252.152 306.646C254.412 306.646 256.214 305.99 257.548 304.688C258.891 303.396 259.568 301.318 259.568 298.459V293.396C258.495 295.063 257.027 296.428 255.152 297.48C253.277 298.521 251.079 299.042 248.568 299.042C245.62 299.042 242.954 298.287 240.568 296.771C238.178 295.245 236.287 293.084 234.902 290.292C233.511 287.5 232.818 284.271 232.818 280.605C232.818 276.938 233.511 273.719 234.902 270.938C236.287 268.162 238.178 266.032 240.568 264.542C242.954 263.042 245.62 262.292 248.568 262.292ZM259.568 280.667C259.568 277.933 258.808 275.782 257.298 274.209C255.782 272.625 253.933 271.834 251.756 271.834C249.589 271.834 247.745 272.615 246.235 274.167C244.719 275.724 243.964 277.87 243.964 280.605C243.964 283.329 244.719 285.495 246.235 287.105C247.745 288.704 249.589 289.5 251.756 289.5C253.933 289.5 255.782 288.719 257.298 287.146C258.808 285.563 259.568 283.407 259.568 280.667Z" fill="white"/>
<path d="M330.537 253.584L314.974 283.667V298.521H304.037V283.667L288.495 253.584H300.891L309.599 272.417L318.245 253.584H330.537Z" fill="white"/>
<path d="M368.596 280.084C368.596 281.115 368.534 282.183 368.409 283.292H343.638C343.815 285.516 344.534 287.219 345.784 288.396C347.044 289.563 348.596 290.146 350.429 290.146C353.148 290.146 355.044 288.995 356.117 286.688H367.763C367.164 289.037 366.086 291.146 364.534 293.021C362.976 294.896 361.023 296.37 358.679 297.438C356.33 298.511 353.705 299.042 350.804 299.042C347.304 299.042 344.185 298.303 341.45 296.813C338.726 295.313 336.596 293.178 335.054 290.396C333.523 287.62 332.763 284.375 332.763 280.667C332.763 276.959 333.518 273.719 335.034 270.938C336.544 268.162 338.664 266.032 341.388 264.542C344.122 263.042 347.263 262.292 350.804 262.292C354.263 262.292 357.33 263.021 360.013 264.48C362.705 265.928 364.81 267.995 366.325 270.688C367.836 273.37 368.596 276.5 368.596 280.084ZM357.409 277.209C357.409 275.334 356.763 273.844 355.471 272.73C354.19 271.62 352.596 271.063 350.679 271.063C348.846 271.063 347.294 271.599 346.034 272.667C344.784 273.74 344.002 275.25 343.7 277.209H357.409Z" fill="white"/>
<path d="M394.26 289.25V298.521H388.698C384.724 298.521 381.625 297.553 379.406 295.605C377.182 293.662 376.073 290.495 376.073 286.105V271.896H371.739V262.813H376.073V254.105H387.031V262.813H394.198V271.896H387.031V286.23C387.031 287.303 387.281 288.073 387.781 288.542C388.291 289.016 389.146 289.25 390.343 289.25H394.26Z" fill="white"/>
<path d="M405.842 259.105C403.91 259.105 402.332 258.542 401.113 257.417C399.905 256.282 399.301 254.875 399.301 253.209C399.301 251.5 399.905 250.084 401.113 248.959C402.332 247.823 403.91 247.25 405.842 247.25C407.717 247.25 409.259 247.823 410.467 248.959C411.686 250.084 412.301 251.5 412.301 253.209C412.301 254.875 411.686 256.282 410.467 257.417C409.259 258.542 407.717 259.105 405.842 259.105ZM411.28 262.813V298.521H400.322V262.813H411.28Z" fill="white"/>
</svg>
