<svg width="1026" height="209" viewBox="0 0 1026 209" fill="none" xmlns="http://www.w3.org/2000/svg">
<mask id="mask0_133_1763" style="mask-type:luminance" maskUnits="userSpaceOnUse" x="59" y="0" width="285" height="196">
<path d="M59.7822 0H343.631V195.458H59.7822V0Z" fill="white"/>
</mask>
<g mask="url(#mask0_133_1763)">
<path fill-rule="evenodd" clip-rule="evenodd" d="M201.036 182.591L215.301 166.907L211.016 176.897L219.574 166.907L213.868 158.36V145.528L205.31 138.402L209.595 136.97L201.036 131.264L199.616 108.453L198.184 122.717L193.91 102.747L186.784 114.159L182.499 115.579L171.099 132.696L162.541 134.117L175.373 142.675H169.667L178.226 146.949L176.793 154.075L189.637 162.633L183.931 161.213L188.205 164.066L186.784 181.171L189.637 175.465V184.024L195.331 179.739L201.036 182.591ZM340.767 166.907C342.187 158.36 342.187 149.801 342.187 141.243C342.187 62.8311 279.46 0.0922852 201.036 0.0922852C124.045 0.0922852 59.8857 62.8311 59.8857 141.243C59.8857 149.801 61.3064 158.36 62.7386 166.907C64.1592 175.465 67.012 184.024 69.8648 192.571C71.297 192.571 71.297 192.571 74.1383 192.571C75.5704 192.571 76.9911 189.729 78.4233 188.297C78.4233 186.876 79.8439 184.024 81.2761 184.024C82.6967 184.024 84.1289 179.739 85.5495 178.318C85.5495 176.897 86.9701 175.465 86.9701 174.045C88.4023 174.045 88.4023 174.045 88.4023 174.045C89.823 174.045 94.1079 169.76 95.5286 168.339C95.5286 166.907 98.3814 164.066 98.3814 162.633C98.3814 162.633 102.655 156.928 104.087 155.507C104.087 154.075 106.94 151.234 106.94 151.234C108.36 152.654 109.793 155.507 114.066 154.075C116.919 152.654 119.772 151.234 122.625 149.801C124.045 148.381 126.898 146.949 128.319 145.528L138.298 136.97L141.15 135.549C144.003 134.117 144.003 132.696 145.435 129.843C146.856 126.99 145.435 125.57 149.709 125.57C151.13 125.57 152.562 126.99 156.835 126.99C156.835 126.99 158.267 126.99 159.688 126.99C162.541 126.99 162.541 126.99 163.961 125.57C165.394 125.57 168.246 122.717 168.246 121.285L169.667 119.864C172.52 118.432 175.373 112.726 176.793 111.306C178.226 111.306 182.499 105.6 182.499 105.6C183.931 104.18 185.352 102.747 185.352 101.327C186.784 99.8945 191.057 89.9155 193.91 89.9155C195.331 89.9155 196.763 88.4948 199.616 91.3476C199.616 92.7683 201.036 92.7683 202.469 94.2005C202.469 95.6211 208.163 101.327 208.163 101.327L209.595 102.747C211.016 102.747 212.448 105.6 215.301 107.032C216.721 107.032 219.574 111.306 220.995 111.306C222.427 112.726 223.847 114.159 225.28 115.579C226.7 117.011 229.553 122.717 230.974 122.717C232.406 124.138 236.679 128.411 236.679 129.843C238.111 131.264 243.806 135.549 245.238 136.97C246.658 138.402 248.091 141.243 249.511 142.675C252.364 144.096 250.943 145.528 253.796 145.528C253.796 144.096 255.217 142.675 255.217 142.675C256.637 141.243 263.775 135.549 266.628 134.117C266.628 134.117 269.469 132.696 272.322 132.696C275.175 131.264 275.175 129.843 279.46 131.264C279.46 132.696 282.301 132.696 282.301 132.696C283.733 134.117 286.586 138.402 288.007 138.402C288.007 139.822 292.292 145.528 292.292 145.528C293.712 145.528 292.292 146.949 293.712 146.949C295.133 146.949 296.565 148.381 297.986 151.234C300.839 152.654 307.965 156.928 310.818 158.36C313.671 159.781 315.103 161.213 317.956 164.066C319.376 164.066 320.797 165.486 322.229 166.907C325.082 168.339 326.503 172.612 326.503 172.612C329.355 175.465 330.787 176.897 332.208 179.739C333.629 181.171 333.629 184.024 335.061 186.876C337.914 179.739 339.334 174.045 340.767 166.907ZM260.922 155.507L262.343 164.066L258.07 166.907L256.637 179.739L262.343 175.465L265.196 188.297L272.322 185.444L276.607 189.729L296.565 185.444H285.154L310.818 178.318L297.986 174.045L292.292 161.213L293.712 168.339L286.586 159.781L280.881 158.36L279.46 135.549L273.754 144.096H263.775V162.633L260.922 155.507ZM226.7 142.675L228.132 155.507L252.364 159.781L246.658 154.075L236.679 141.243L222.427 122.717V126.99L216.721 121.285V124.138L223.847 136.97L225.28 149.801L226.7 142.675ZM116.919 176.897L108.36 166.907L101.234 174.045V171.192L91.2551 181.171L84.1289 192.571H92.6758L89.823 194.003H94.108L101.234 181.171L99.802 186.876L102.655 185.444V189.729L112.634 185.444L116.919 176.897ZM162.541 152.654L153.982 136.97L142.583 146.949L145.435 141.243L135.456 148.381L131.171 154.075L122.625 158.36L114.066 162.633L121.192 165.486L122.625 176.897L124.045 185.444L126.898 181.171L134.024 189.729L132.604 182.591L138.298 191.15L149.709 186.876L148.288 181.171L158.267 171.192L152.562 174.045L161.12 164.066L162.541 152.654Z" fill="#333330"/>
</g>
<mask id="mask1_133_1763" style="mask-type:luminance" maskUnits="userSpaceOnUse" x="0" y="201" width="404" height="8">
<path d="M0 201.372H403.598V208.452H0V201.372Z" fill="white"/>
</mask>
<g mask="url(#mask1_133_1763)">
<path fill-rule="evenodd" clip-rule="evenodd" d="M403.494 205.403L352.166 206.835L302.271 208.256H101.234L49.9069 206.835L0 205.403H49.9069L101.234 203.982H302.271L352.166 205.403H403.494Z" fill="#333330"/>
</g>
<path d="M436.368 102.384C440.434 103.25 443.691 105.283 446.163 108.483C448.657 111.659 449.905 115.274 449.905 119.339C449.905 125.253 447.837 129.942 443.714 133.384C439.614 136.837 433.873 138.558 426.482 138.558H393.634V67.9657H425.419C432.557 67.9657 438.17 69.6173 442.236 72.909C446.301 76.2123 448.334 80.659 448.334 86.2607C448.334 90.4186 447.237 93.8836 445.054 96.6555C442.859 99.4044 439.972 101.31 436.368 102.384ZM410.82 96.5169H422.093C424.888 96.5169 427.048 95.9048 428.561 94.669C430.062 93.4447 430.824 91.6198 430.824 89.2174C430.824 86.792 430.062 84.944 428.561 83.6735C427.048 82.4146 424.888 81.7793 422.093 81.7793H410.82V96.5169ZM423.479 124.699C426.366 124.699 428.607 124.052 430.178 122.758C431.748 121.442 432.534 119.524 432.534 117.029C432.534 114.569 431.702 112.629 430.039 111.208C428.399 109.799 426.158 109.083 423.294 109.083H410.82V124.699H423.479Z" fill="#333330"/>
<path d="M485.424 139.344C479.903 139.344 474.948 138.177 470.547 135.833C466.17 133.499 462.717 130.15 460.199 125.807C457.704 121.441 456.457 116.336 456.457 110.515C456.457 104.763 457.715 99.693 460.245 95.3156C462.797 90.9152 466.297 87.5426 470.732 85.198C475.167 82.8303 480.122 81.6406 485.608 81.6406C491.083 81.6406 496.049 82.8303 500.485 85.198C504.92 87.5426 508.396 90.9152 510.926 95.3156C513.478 99.693 514.76 104.763 514.76 110.515C514.76 116.279 513.467 121.361 510.879 125.761C508.292 130.138 504.758 133.499 500.3 135.833C495.865 138.177 490.898 139.344 485.424 139.344ZM485.424 124.467C488.681 124.467 491.476 123.266 493.786 120.864C496.096 118.462 497.251 115.02 497.251 110.515C497.251 106.022 496.119 102.569 493.878 100.167C491.66 97.7411 488.9 96.5168 485.608 96.5168C482.247 96.5168 479.464 97.718 477.246 100.12C475.052 102.5 473.966 105.965 473.966 110.515C473.966 115.02 475.04 118.462 477.2 120.864C479.383 123.266 482.12 124.467 485.424 124.467Z" fill="#333330"/>
<path d="M549.454 139.344C543.933 139.344 538.978 138.177 534.578 135.833C530.2 133.499 526.747 130.15 524.229 125.807C521.734 121.441 520.487 116.336 520.487 110.515C520.487 104.763 521.746 99.693 524.275 95.3156C526.828 90.9152 530.327 87.5426 534.762 85.198C539.198 82.8303 544.152 81.6406 549.639 81.6406C555.113 81.6406 560.08 82.8303 564.515 85.198C568.95 87.5426 572.426 90.9152 574.956 95.3156C577.508 99.693 578.79 104.763 578.79 110.515C578.79 116.279 577.497 121.361 574.91 125.761C572.323 130.138 568.788 133.499 564.33 135.833C559.895 138.177 554.928 139.344 549.454 139.344ZM549.454 124.467C552.711 124.467 555.506 123.266 557.816 120.864C560.126 118.462 561.281 115.02 561.281 110.515C561.281 106.022 560.149 102.569 557.908 100.167C555.691 97.7411 552.93 96.5168 549.639 96.5168C546.278 96.5168 543.494 97.718 541.277 100.12C539.082 102.5 537.996 105.965 537.996 110.515C537.996 115.02 539.071 118.462 541.23 120.864C543.413 123.266 546.151 124.467 549.454 124.467Z" fill="#333330"/>
<path d="M622.215 138.558L605.121 115.043V138.558H587.935V64.1771H605.121V105.295L622.123 82.4721H643.328L619.997 110.608L643.513 138.558H622.215Z" fill="#333330"/>
<path d="M658.695 76.6512C655.669 76.6512 653.209 75.7619 651.303 73.9716C649.386 72.193 648.438 69.9869 648.438 67.3651C648.438 64.6855 649.386 62.468 651.303 60.7124C653.209 58.9337 655.669 58.0328 658.695 58.0328C661.652 58.0328 664.077 58.9337 665.994 60.7124C667.9 62.468 668.859 64.6855 668.859 67.3651C668.859 69.9869 667.9 72.193 665.994 73.9716C664.077 75.7619 661.652 76.6512 658.695 76.6512ZM667.242 82.4723V138.558H650.055V82.4723H667.242Z" fill="#333330"/>
<path d="M713.897 81.8717C720.457 81.8717 725.689 83.9969 729.604 88.2472C733.543 92.4976 735.518 98.3533 735.518 105.803V138.558H718.424V108.113C718.424 104.359 717.431 101.449 715.467 99.3813C713.527 97.2908 710.917 96.2397 707.66 96.2397C704.356 96.2397 701.746 97.2908 699.806 99.3813C697.865 101.449 696.895 104.359 696.895 108.113V138.558H679.709V82.4723H696.895V89.9104C698.651 87.4156 700.984 85.4637 703.917 84.0431C706.874 82.5993 710.201 81.8717 713.897 81.8717Z" fill="#333330"/>
<path d="M768.756 81.6405C772.729 81.6405 776.194 82.4605 779.151 84.0891C782.131 85.6945 784.429 87.8081 786.035 90.4184V82.4721H803.267V138.466C803.267 143.605 802.228 148.272 800.172 152.464C798.139 156.645 795.021 159.972 790.84 162.443C786.647 164.938 781.426 166.185 775.178 166.185C766.885 166.185 760.163 164.222 754.989 160.318C749.838 156.403 746.904 151.09 746.165 144.379H763.12C763.674 146.528 764.945 148.225 766.954 149.461C768.953 150.686 771.436 151.309 774.393 151.309C777.927 151.309 780.745 150.293 782.847 148.26C784.972 146.227 786.035 142.959 786.035 138.466V130.519C784.372 133.141 782.062 135.266 779.105 136.895C776.171 138.535 772.729 139.344 768.756 139.344C764.136 139.344 759.944 138.165 756.19 135.786C752.425 133.418 749.456 130.046 747.274 125.669C745.114 121.268 744.04 116.186 744.04 110.423C744.04 104.671 745.114 99.6121 747.274 95.2693C749.456 90.9035 752.425 87.5425 756.19 85.1979C759.944 82.8301 764.136 81.6405 768.756 81.6405ZM786.035 110.515C786.035 106.242 784.845 102.869 782.477 100.397C780.098 97.9027 777.211 96.6553 773.792 96.6553C770.373 96.6553 767.474 97.8796 765.106 100.305C762.727 102.742 761.549 106.115 761.549 110.423C761.549 114.708 762.727 118.115 765.106 120.633C767.474 123.128 770.373 124.375 773.792 124.375C777.211 124.375 780.098 123.151 782.477 120.679C784.845 118.184 786.035 114.8 786.035 110.515Z" fill="#333330"/>
<path d="M897.542 67.9657L873.102 115.228V138.558H855.916V115.228L831.477 67.9657H850.973L864.648 97.5333L878.23 67.9657H897.542Z" fill="#333330"/>
<path d="M957.321 109.591C957.321 111.231 957.228 112.906 957.043 114.627H918.144C918.421 118.115 919.541 120.771 921.516 122.619C923.48 124.467 925.917 125.391 928.816 125.391C933.089 125.391 936.069 123.578 937.732 119.94H956.027C955.103 123.636 953.405 126.962 950.945 129.919C948.508 132.876 945.447 135.185 941.751 136.849C938.079 138.512 933.967 139.343 929.416 139.343C923.895 139.343 918.998 138.177 914.725 135.832C910.44 133.499 907.079 130.15 904.653 125.807C902.251 121.441 901.05 116.336 901.05 110.515C901.05 104.694 902.228 99.6119 904.607 95.2692C906.975 90.9034 910.301 87.5424 914.586 85.1977C918.894 82.83 923.838 81.6404 929.416 81.6404C934.833 81.6404 939.649 82.7838 943.877 85.0591C948.092 87.346 951.384 90.6031 953.763 94.8534C956.131 99.0807 957.321 103.989 957.321 109.591ZM939.765 105.063C939.765 102.141 938.749 99.7967 936.716 98.0412C934.706 96.2856 932.2 95.4078 929.185 95.4078C926.321 95.4078 923.884 96.2625 921.886 97.9488C919.911 99.6119 918.698 101.991 918.236 105.063H939.765Z" fill="#333330"/>
<path d="M997.663 123.959V138.558H988.885C982.66 138.558 977.809 137.034 974.332 133.985C970.844 130.936 969.112 125.969 969.112 119.062V96.748H962.274V82.4724H969.112V68.7974H986.298V82.4724H997.525V96.748H986.298V119.247C986.298 120.945 986.691 122.158 987.499 122.897C988.296 123.613 989.636 123.959 991.519 123.959H997.663Z" fill="#333330"/>
<path d="M1015.84 76.6512C1012.81 76.6512 1010.35 75.7619 1008.44 73.9716C1006.53 72.193 1005.58 69.9869 1005.58 67.3651C1005.58 64.6855 1006.53 62.468 1008.44 60.7124C1010.35 58.9337 1012.81 58.0328 1015.84 58.0328C1018.79 58.0328 1021.22 58.9337 1023.14 60.7124C1025.04 62.468 1026 64.6855 1026 67.3651C1026 69.9869 1025.04 72.193 1023.14 73.9716C1021.22 75.7619 1018.79 76.6512 1015.84 76.6512ZM1024.38 82.4723V138.558H1007.2V82.4723H1024.38Z" fill="#333330"/>
</svg>
