<svg width="428" height="222" viewBox="0 0 428 222" fill="none" xmlns="http://www.w3.org/2000/svg">
<mask id="mask0_140_1811" style="mask-type:luminance" maskUnits="userSpaceOnUse" x="62" y="0" width="303" height="207">
<path d="M62.7969 0.432251H364.13V206.333H62.7969V0.432251Z" fill="white"/>
</mask>
<g mask="url(#mask0_140_1811)">
<path fill-rule="evenodd" clip-rule="evenodd" d="M213.37 194.224L228.5 177.578L223.964 188.172L233.042 177.578L226.99 168.5V154.88L217.912 147.312L222.448 145.797L213.37 139.745L211.854 115.536L210.344 130.667L205.802 109.479L198.24 121.589L193.698 123.099L181.594 141.26L172.511 142.771L186.131 151.854H180.078L189.157 156.391L187.646 163.958L201.266 173.036L195.214 171.526L199.75 174.552L198.24 192.708L201.266 186.656V195.734L207.318 191.198L213.37 194.224ZM361.667 177.578C363.183 168.5 363.183 159.417 363.183 150.339C363.183 67.1093 296.599 0.526001 213.37 0.526001C131.657 0.526001 63.5576 67.1093 63.5576 150.339C63.5576 159.417 65.0732 168.5 66.5837 177.578C68.0993 186.656 71.1253 195.734 74.1514 204.818C75.667 204.818 75.667 204.818 78.693 204.818C80.2035 204.818 81.7191 201.792 83.2295 200.276C83.2295 198.76 84.7451 195.734 86.2555 195.734C87.7712 195.734 89.2816 191.198 90.7972 189.682C90.7972 188.172 92.3128 186.656 92.3128 185.146C93.8232 185.146 93.8232 185.146 93.8232 185.146C95.3389 185.146 99.8753 180.604 101.391 179.089C101.391 177.578 104.417 174.552 104.417 173.036C104.417 173.036 108.953 166.984 110.469 165.469C110.469 163.958 113.495 160.932 113.495 160.932C115.011 162.443 116.521 165.469 121.063 163.958C124.089 162.443 127.115 160.932 130.141 159.417C131.657 157.906 134.683 156.391 136.193 154.88L146.787 145.797L149.813 144.286C152.839 142.771 152.839 141.26 154.354 138.234C155.865 135.208 154.354 133.693 158.891 133.693C160.407 133.693 161.922 135.208 166.459 135.208C166.459 135.208 167.974 135.208 169.485 135.208C172.511 135.208 172.511 135.208 174.026 133.693C175.537 133.693 178.568 130.667 178.568 129.151L180.078 127.641C183.104 126.125 186.131 120.073 187.646 118.562C189.157 118.562 193.698 112.505 193.698 112.505C195.214 110.995 196.724 109.479 196.724 107.969C198.24 106.453 202.776 95.8593 205.802 95.8593C207.318 95.8593 208.828 94.3489 211.854 97.375C211.854 98.8906 213.37 98.8906 214.886 100.401C214.886 101.917 220.938 107.969 220.938 107.969L222.448 109.479C223.964 109.479 225.474 112.505 228.5 114.021C230.016 114.021 233.042 118.562 234.558 118.562C236.068 120.073 237.584 121.589 239.094 123.099C240.61 124.615 243.636 130.667 245.146 130.667C246.662 132.182 251.203 136.719 251.203 138.234C252.714 139.745 258.766 144.286 260.282 145.797C261.792 147.312 263.308 150.339 264.823 151.854C267.849 153.365 266.334 154.88 269.36 154.88C269.36 153.365 270.875 151.854 270.875 151.854C272.386 150.339 279.953 144.286 282.979 142.771C282.979 142.771 286.006 141.26 289.032 141.26C292.058 139.745 292.058 138.234 296.599 139.745C296.599 141.26 299.625 141.26 299.625 141.26C301.141 142.771 304.167 147.312 305.677 147.312C305.677 148.828 310.219 154.88 310.219 154.88C311.73 154.88 310.219 156.391 311.729 156.391C313.245 156.391 314.756 157.906 316.271 160.932C319.297 162.443 326.865 166.984 329.891 168.5C332.917 170.01 334.433 171.526 337.459 174.552C338.969 174.552 340.485 176.062 341.995 177.578C345.021 179.089 346.537 183.63 346.537 183.63C349.563 186.656 351.078 188.172 352.589 191.198C354.105 192.708 354.105 195.734 355.615 198.76C358.641 191.198 360.157 185.146 361.667 177.578ZM276.927 165.469L278.438 174.552L273.901 177.578L272.386 191.198L278.438 186.656L281.469 200.276L289.032 197.25L293.573 201.792L314.756 197.25H302.651L329.891 189.682L316.271 185.146L310.219 171.526L311.729 179.089L304.167 170.01L298.115 168.5L296.599 144.286L290.547 153.365H279.953V173.036L276.927 165.469ZM240.61 151.854L242.12 165.469L267.849 170.01L261.792 163.958L251.203 150.339L236.068 130.667V135.208L230.016 129.151V132.182L237.584 145.797L239.094 159.417L240.61 151.854ZM124.089 188.172L115.011 177.578L107.443 185.146V182.115L96.8493 192.708L89.2816 204.818H98.3649L95.3389 206.328H99.8753L107.443 192.708L105.927 198.76L108.953 197.25V201.792L119.547 197.25L124.089 188.172ZM172.511 162.443L163.433 145.797L151.328 156.391L154.354 150.339L143.761 157.906L139.219 163.958L130.141 168.5L121.063 173.036L128.631 176.062L130.141 188.172L131.657 197.25L134.683 192.708L142.245 201.792L140.735 194.224L146.787 203.302L158.891 198.76L157.381 192.708L167.974 182.115L161.922 185.146L171 174.552L172.511 162.443Z" fill="#333330"/>
</g>
<mask id="mask1_140_1811" style="mask-type:luminance" maskUnits="userSpaceOnUse" x="0" y="215" width="428" height="7">
<path d="M0 215.667H428V221.432H0V215.667Z" fill="white"/>
</mask>
<g mask="url(#mask1_140_1811)">
<path fill-rule="evenodd" clip-rule="evenodd" d="M428.25 218.438L373.776 219.948L320.813 221.464H107.443L52.9635 219.948L0 218.438H52.9635L107.443 216.922H320.813L373.776 218.438H428.25Z" fill="#333330"/>
</g>
</svg>
